<?xml version="1.0" encoding="utf-8"?>
<!-- Generator: Adobe Illustrator 16.0.0, SVG Export Plug-In . SVG Version: 6.00 Build 0)  -->
<!DOCTYPE svg PUBLIC "-//W3C//DTD SVG 1.1//EN" "http://www.w3.org/Graphics/SVG/1.1/DTD/svg11.dtd">
<svg version="1.1" id="Layer_1" xmlns="http://www.w3.org/2000/svg" xmlns:xlink="http://www.w3.org/1999/xlink" x="0px" y="0px"
	 width="500px" height="500px" viewBox="0 0 500 500" enable-background="new 0 0 500 500" xml:space="preserve">
<title>17</title>
<g>
	<path d="M415.8,92v-2.8l-0.8-1.6l-0.8-1.2l-2-2.4l0,0l-3.2-2.4l-1.2-0.8l-1.6-0.8h-92.8c-8.837,0-16,7.164-16,16s7.163,16,16,16h48
		L217.8,254.4c-6.296,6.296-6.296,16.504,0,22.8c6.296,6.296,16.504,6.296,22.8,0l0,0l143.6-143.6v48c0,8.836,7.163,16,16,16
		c8.836,0,16-7.164,16-16V94.8l0,0C416.149,93.856,416.016,92.92,415.8,92z"/>
	<path d="M137.8,405.2H327.4c26.51,0,48-21.491,48-48V244c0-8.836-7.164-16-16-16c-8.837,0-16,7.164-16,16v113.2
		c0,8.837-7.164,16-16,16H137.8c-8.836,0-16-7.163-16-16V167.6c0-8.836,7.164-16,16-16H251c8.836,0,16-7.164,16-16s-7.164-16-16-16
		H137.8c-26.509,0-48,21.49-48,48v189.6C89.8,383.709,111.291,405.2,137.8,405.2z"/>
</g>
</svg>
